# xmcd CD database file
#
# Track frame offsets:
#	187
#	24982
#	53012
#	76017
#	98112
#	120887
#	137090
#	162040
#	184095
#	196447
#
# Disc length: 2966 seconds
#
# Revision: 0
# Processed by: cddbd v1.5.1PL0 Copyright (c) Steve Scherf et al.
# Submitted via: CDex 1.51
#
DISCID=6e0b940a
DTITLE=Various Artist - True Crime
DYEAR=1900
DGENRE=Heavy Metal
TTITLE0=Holeshott Bloods-Imagination
TTITLE1=Gemmy Rockets-Looking For A Place To Die
TTITLE2=T.F.G-Prisoner's Life
TTITLE3=Finger-Gimme Home
TTITLE4=練馬マッチョマン-帰ってきたガッツ一番星★
TTITLE5=Joe Ark-Wild Sign
TTITLE6=Emerald Forest-Nowhere To Run, Nowhere To Hide
TTITLE7=Saber Tiger-Light Thunder Light
TTITLE8=Blutish Bulldogs-Teenage Stress
TTITLE9=BAKI-黒い太陽
EXTD=
EXTT0=
EXTT1=
EXTT2=
EXTT3=
EXTT4=
EXTT5=
EXTT6=
EXTT7=
EXTT8=
EXTT9=
PLAYORDER=
